<mxfile host="app.diagrams.net" modified="2024-03-20T21:46:16.724Z" agent="Mozilla/5.0 (Windows NT 10.0; Win64; x64) AppleWebKit/537.36 (KHTML, like Gecko) Chrome/122.0.0.0 Safari/537.36" etag="lnY2OatyIy85hxh82mGo" version="24.0.6" type="github">
  <diagram name="Página-1" id="Nm1Fz7t73D1OGTeDfmak">
    <mxGraphModel dx="1075" dy="412" grid="1" gridSize="10" guides="1" tooltips="1" connect="1" arrows="1" fold="1" page="1" pageScale="1" pageWidth="827" pageHeight="1169" math="0" shadow="0">
      <root>
        <mxCell id="0" />
        <mxCell id="1" parent="0" />
        <mxCell id="8YJoVrMXhFkuWjcxH3iJ-1" value="" style="shape=umlLifeline;perimeter=lifelinePerimeter;whiteSpace=wrap;html=1;container=1;dropTarget=0;collapsible=0;recursiveResize=0;outlineConnect=0;portConstraint=eastwest;newEdgeStyle={&quot;curved&quot;:0,&quot;rounded&quot;:0};participant=umlActor;" vertex="1" parent="1">
          <mxGeometry x="60" y="70" width="20" height="300" as="geometry" />
        </mxCell>
        <mxCell id="8YJoVrMXhFkuWjcxH3iJ-2" value="«View»&lt;br&gt;&lt;b&gt;TelaCriarDenúncia&lt;/b&gt;" style="shape=umlLifeline;perimeter=lifelinePerimeter;whiteSpace=wrap;html=1;container=1;dropTarget=0;collapsible=0;recursiveResize=0;outlineConnect=0;portConstraint=eastwest;newEdgeStyle={&quot;curved&quot;:0,&quot;rounded&quot;:0};" vertex="1" parent="1">
          <mxGeometry x="130" y="70" width="100" height="300" as="geometry" />
        </mxCell>
        <mxCell id="8YJoVrMXhFkuWjcxH3iJ-11" value="" style="html=1;points=[[0,0,0,0,5],[0,1,0,0,-5],[1,0,0,0,5],[1,1,0,0,-5]];perimeter=orthogonalPerimeter;outlineConnect=0;targetShapes=umlLifeline;portConstraint=eastwest;newEdgeStyle={&quot;curved&quot;:0,&quot;rounded&quot;:0};" vertex="1" parent="8YJoVrMXhFkuWjcxH3iJ-2">
          <mxGeometry x="45" y="90" width="10" height="200" as="geometry" />
        </mxCell>
        <mxCell id="8YJoVrMXhFkuWjcxH3iJ-3" value="&lt;span style=&quot;color: rgb(0, 0, 0); font-family: Helvetica; font-size: 12px; font-style: normal; font-variant-ligatures: normal; font-variant-caps: normal; font-weight: 400; letter-spacing: normal; orphans: 2; text-align: center; text-indent: 0px; text-transform: none; widows: 2; word-spacing: 0px; -webkit-text-stroke-width: 0px; white-space: nowrap; background-color: rgb(251, 251, 251); text-decoration-thickness: initial; text-decoration-style: initial; text-decoration-color: initial; display: inline !important; float: none;&quot;&gt;Denúncia&lt;/span&gt;" style="shape=umlLifeline;perimeter=lifelinePerimeter;whiteSpace=wrap;html=1;container=1;dropTarget=0;collapsible=0;recursiveResize=0;outlineConnect=0;portConstraint=eastwest;newEdgeStyle={&quot;curved&quot;:0,&quot;rounded&quot;:0};" vertex="1" parent="1">
          <mxGeometry x="414" y="70" width="100" height="300" as="geometry" />
        </mxCell>
        <mxCell id="8YJoVrMXhFkuWjcxH3iJ-24" style="edgeStyle=orthogonalEdgeStyle;rounded=0;orthogonalLoop=1;jettySize=auto;html=1;curved=0;exitX=1;exitY=0;exitDx=0;exitDy=5;exitPerimeter=0;" edge="1" parent="8YJoVrMXhFkuWjcxH3iJ-3" source="8YJoVrMXhFkuWjcxH3iJ-17" target="8YJoVrMXhFkuWjcxH3iJ-17">
          <mxGeometry relative="1" as="geometry">
            <Array as="points">
              <mxPoint x="75" y="125" />
              <mxPoint x="75" y="160" />
            </Array>
          </mxGeometry>
        </mxCell>
        <mxCell id="8YJoVrMXhFkuWjcxH3iJ-17" value="" style="html=1;points=[[0,0,0,0,5],[0,1,0,0,-5],[1,0,0,0,5],[1,1,0,0,-5]];perimeter=orthogonalPerimeter;outlineConnect=0;targetShapes=umlLifeline;portConstraint=eastwest;newEdgeStyle={&quot;curved&quot;:0,&quot;rounded&quot;:0};" vertex="1" parent="8YJoVrMXhFkuWjcxH3iJ-3">
          <mxGeometry x="45" y="120" width="10" height="170" as="geometry" />
        </mxCell>
        <mxCell id="8YJoVrMXhFkuWjcxH3iJ-4" value="DenúciaDAO" style="shape=umlLifeline;perimeter=lifelinePerimeter;whiteSpace=wrap;html=1;container=1;dropTarget=0;collapsible=0;recursiveResize=0;outlineConnect=0;portConstraint=eastwest;newEdgeStyle={&quot;curved&quot;:0,&quot;rounded&quot;:0};" vertex="1" parent="1">
          <mxGeometry x="560" y="70" width="100" height="300" as="geometry" />
        </mxCell>
        <mxCell id="8YJoVrMXhFkuWjcxH3iJ-21" value="" style="html=1;points=[[0,0,0,0,5],[0,1,0,0,-5],[1,0,0,0,5],[1,1,0,0,-5]];perimeter=orthogonalPerimeter;outlineConnect=0;targetShapes=umlLifeline;portConstraint=eastwest;newEdgeStyle={&quot;curved&quot;:0,&quot;rounded&quot;:0};" vertex="1" parent="8YJoVrMXhFkuWjcxH3iJ-4">
          <mxGeometry x="45" y="190" width="10" height="30" as="geometry" />
        </mxCell>
        <mxCell id="8YJoVrMXhFkuWjcxH3iJ-5" value="&lt;span style=&quot;text-wrap: nowrap;&quot;&gt;DenunciaCtr&lt;/span&gt;" style="shape=umlLifeline;perimeter=lifelinePerimeter;whiteSpace=wrap;html=1;container=1;dropTarget=0;collapsible=0;recursiveResize=0;outlineConnect=0;portConstraint=eastwest;newEdgeStyle={&quot;curved&quot;:0,&quot;rounded&quot;:0};" vertex="1" parent="1">
          <mxGeometry x="270" y="70" width="100" height="300" as="geometry" />
        </mxCell>
        <mxCell id="8YJoVrMXhFkuWjcxH3iJ-14" value="" style="html=1;points=[[0,0,0,0,5],[0,1,0,0,-5],[1,0,0,0,5],[1,1,0,0,-5]];perimeter=orthogonalPerimeter;outlineConnect=0;targetShapes=umlLifeline;portConstraint=eastwest;newEdgeStyle={&quot;curved&quot;:0,&quot;rounded&quot;:0};" vertex="1" parent="8YJoVrMXhFkuWjcxH3iJ-5">
          <mxGeometry x="45" y="110" width="10" height="180" as="geometry" />
        </mxCell>
        <mxCell id="8YJoVrMXhFkuWjcxH3iJ-6" value="Criar Denuncia" style="endArrow=block;endFill=1;html=1;edgeStyle=orthogonalEdgeStyle;align=left;verticalAlign=top;rounded=0;" edge="1" parent="1">
          <mxGeometry x="-1" relative="1" as="geometry">
            <mxPoint x="70" y="160" as="sourcePoint" />
            <mxPoint x="180" y="160" as="targetPoint" />
          </mxGeometry>
        </mxCell>
        <mxCell id="8YJoVrMXhFkuWjcxH3iJ-7" value="1" style="edgeLabel;resizable=0;html=1;align=left;verticalAlign=bottom;" connectable="0" vertex="1" parent="8YJoVrMXhFkuWjcxH3iJ-6">
          <mxGeometry x="-1" relative="1" as="geometry" />
        </mxCell>
        <mxCell id="8YJoVrMXhFkuWjcxH3iJ-8" value="&lt;span style=&quot;color: rgb(0, 0, 0); font-family: Helvetica; font-size: 12px; font-style: normal; font-variant-ligatures: normal; font-variant-caps: normal; font-weight: 400; letter-spacing: normal; orphans: 2; text-align: center; text-indent: 0px; text-transform: none; widows: 2; word-spacing: 0px; -webkit-text-stroke-width: 0px; white-space: nowrap; background-color: rgb(251, 251, 251); text-decoration-thickness: initial; text-decoration-style: initial; text-decoration-color: initial; display: inline !important; float: none;&quot;&gt;Usuário&lt;/span&gt;" style="shape=umlLifeline;perimeter=lifelinePerimeter;whiteSpace=wrap;html=1;container=1;dropTarget=0;collapsible=0;recursiveResize=0;outlineConnect=0;portConstraint=eastwest;newEdgeStyle={&quot;curved&quot;:0,&quot;rounded&quot;:0};" vertex="1" parent="1">
          <mxGeometry x="700" y="70" width="100" height="310" as="geometry" />
        </mxCell>
        <mxCell id="8YJoVrMXhFkuWjcxH3iJ-27" value="" style="html=1;points=[[0,0,0,0,5],[0,1,0,0,-5],[1,0,0,0,5],[1,1,0,0,-5]];perimeter=orthogonalPerimeter;outlineConnect=0;targetShapes=umlLifeline;portConstraint=eastwest;newEdgeStyle={&quot;curved&quot;:0,&quot;rounded&quot;:0};" vertex="1" parent="8YJoVrMXhFkuWjcxH3iJ-8">
          <mxGeometry x="45" y="240" width="10" height="40" as="geometry" />
        </mxCell>
        <mxCell id="8YJoVrMXhFkuWjcxH3iJ-9" value="&lt;span style=&quot;text-wrap: nowrap;&quot;&gt;Usuário&lt;/span&gt;DAO" style="shape=umlLifeline;perimeter=lifelinePerimeter;whiteSpace=wrap;html=1;container=1;dropTarget=0;collapsible=0;recursiveResize=0;outlineConnect=0;portConstraint=eastwest;newEdgeStyle={&quot;curved&quot;:0,&quot;rounded&quot;:0};" vertex="1" parent="1">
          <mxGeometry x="846" y="70" width="100" height="310" as="geometry" />
        </mxCell>
        <mxCell id="8YJoVrMXhFkuWjcxH3iJ-30" value="" style="html=1;points=[[0,0,0,0,5],[0,1,0,0,-5],[1,0,0,0,5],[1,1,0,0,-5]];perimeter=orthogonalPerimeter;outlineConnect=0;targetShapes=umlLifeline;portConstraint=eastwest;newEdgeStyle={&quot;curved&quot;:0,&quot;rounded&quot;:0};" vertex="1" parent="8YJoVrMXhFkuWjcxH3iJ-9">
          <mxGeometry x="45" y="245" width="10" height="30" as="geometry" />
        </mxCell>
        <mxCell id="8YJoVrMXhFkuWjcxH3iJ-10" value="Usuário" style="text;align=center;fontStyle=1;verticalAlign=middle;spacingLeft=3;spacingRight=3;strokeColor=none;rotatable=0;points=[[0,0.5],[1,0.5]];portConstraint=eastwest;html=1;" vertex="1" parent="1">
          <mxGeometry x="30" y="30" width="80" height="26" as="geometry" />
        </mxCell>
        <mxCell id="8YJoVrMXhFkuWjcxH3iJ-15" value="&lt;span style=&quot;font-size: 12px; text-align: left; background-color: rgb(251, 251, 251);&quot;&gt;CriarDenuncia(): Void&lt;/span&gt;" style="html=1;verticalAlign=bottom;endArrow=block;curved=0;rounded=0;entryX=0;entryY=0;entryDx=0;entryDy=5;" edge="1" target="8YJoVrMXhFkuWjcxH3iJ-14" parent="1" source="8YJoVrMXhFkuWjcxH3iJ-11">
          <mxGeometry relative="1" as="geometry">
            <mxPoint x="190" y="180" as="sourcePoint" />
          </mxGeometry>
        </mxCell>
        <mxCell id="8YJoVrMXhFkuWjcxH3iJ-18" value="&lt;span style=&quot;font-size: 12px; text-align: left; background-color: rgb(251, 251, 251);&quot;&gt;CriarDenuncia&lt;/span&gt;" style="html=1;verticalAlign=bottom;endArrow=block;curved=0;rounded=0;entryX=0;entryY=0;entryDx=0;entryDy=5;" edge="1" target="8YJoVrMXhFkuWjcxH3iJ-17" parent="1" source="8YJoVrMXhFkuWjcxH3iJ-14">
          <mxGeometry relative="1" as="geometry">
            <mxPoint x="389" y="195" as="sourcePoint" />
          </mxGeometry>
        </mxCell>
        <mxCell id="8YJoVrMXhFkuWjcxH3iJ-26" value="&lt;span style=&quot;text-wrap: nowrap;&quot;&gt;+Validar(): Void&lt;/span&gt;" style="text;whiteSpace=wrap;html=1;" vertex="1" parent="1">
          <mxGeometry x="480" y="170" width="110" height="40" as="geometry" />
        </mxCell>
        <mxCell id="8YJoVrMXhFkuWjcxH3iJ-22" value="Registrar Denuncia" style="html=1;verticalAlign=bottom;endArrow=block;curved=0;rounded=0;entryX=0;entryY=0;entryDx=0;entryDy=5;" edge="1" target="8YJoVrMXhFkuWjcxH3iJ-21" parent="1" source="8YJoVrMXhFkuWjcxH3iJ-17">
          <mxGeometry relative="1" as="geometry">
            <mxPoint x="535" y="265" as="sourcePoint" />
          </mxGeometry>
        </mxCell>
        <mxCell id="8YJoVrMXhFkuWjcxH3iJ-23" value="Denuncia Registrada" style="html=1;verticalAlign=bottom;endArrow=open;dashed=1;endSize=8;curved=0;rounded=0;exitX=0;exitY=1;exitDx=0;exitDy=-5;" edge="1" source="8YJoVrMXhFkuWjcxH3iJ-21" parent="1">
          <mxGeometry relative="1" as="geometry">
            <mxPoint x="470" y="285" as="targetPoint" />
          </mxGeometry>
        </mxCell>
        <mxCell id="8YJoVrMXhFkuWjcxH3iJ-28" value="Atualizar Pontuação" style="html=1;verticalAlign=bottom;endArrow=block;curved=0;rounded=0;entryX=0;entryY=0;entryDx=0;entryDy=5;" edge="1" target="8YJoVrMXhFkuWjcxH3iJ-27" parent="1" source="8YJoVrMXhFkuWjcxH3iJ-17">
          <mxGeometry relative="1" as="geometry">
            <mxPoint x="675" y="315" as="sourcePoint" />
          </mxGeometry>
        </mxCell>
        <mxCell id="8YJoVrMXhFkuWjcxH3iJ-31" value="Registrar Pontuação" style="html=1;verticalAlign=bottom;endArrow=block;curved=0;rounded=0;entryX=0;entryY=0;entryDx=0;entryDy=5;" edge="1" target="8YJoVrMXhFkuWjcxH3iJ-30" parent="1" source="8YJoVrMXhFkuWjcxH3iJ-27">
          <mxGeometry relative="1" as="geometry">
            <mxPoint x="821" y="335" as="sourcePoint" />
          </mxGeometry>
        </mxCell>
        <mxCell id="8YJoVrMXhFkuWjcxH3iJ-32" value="Pontuação Registrada" style="html=1;verticalAlign=bottom;endArrow=open;dashed=1;endSize=8;curved=0;rounded=0;exitX=0;exitY=1;exitDx=0;exitDy=-5;" edge="1" source="8YJoVrMXhFkuWjcxH3iJ-30" parent="1" target="8YJoVrMXhFkuWjcxH3iJ-27">
          <mxGeometry x="0.0441" y="30" relative="1" as="geometry">
            <mxPoint x="821" y="405" as="targetPoint" />
            <mxPoint as="offset" />
          </mxGeometry>
        </mxCell>
        <mxCell id="8YJoVrMXhFkuWjcxH3iJ-29" value="Usuário Atualizado" style="html=1;verticalAlign=bottom;endArrow=open;dashed=1;endSize=8;curved=0;rounded=0;exitX=0;exitY=1;exitDx=0;exitDy=-5;" edge="1" source="8YJoVrMXhFkuWjcxH3iJ-27" parent="1" target="8YJoVrMXhFkuWjcxH3iJ-17">
          <mxGeometry x="-0.2391" y="25" relative="1" as="geometry">
            <mxPoint x="680" y="360" as="targetPoint" />
            <mxPoint as="offset" />
          </mxGeometry>
        </mxCell>
        <mxCell id="8YJoVrMXhFkuWjcxH3iJ-19" value="Denuncia Criada" style="html=1;verticalAlign=bottom;endArrow=open;dashed=1;endSize=8;curved=0;rounded=0;exitX=0;exitY=1;exitDx=0;exitDy=-5;entryX=1;entryY=1;entryDx=0;entryDy=-5;entryPerimeter=0;" edge="1" source="8YJoVrMXhFkuWjcxH3iJ-17" parent="1" target="8YJoVrMXhFkuWjcxH3iJ-14">
          <mxGeometry x="-0.005" relative="1" as="geometry">
            <mxPoint x="389" y="265" as="targetPoint" />
            <mxPoint as="offset" />
          </mxGeometry>
        </mxCell>
        <mxCell id="8YJoVrMXhFkuWjcxH3iJ-16" value="Denuncia" style="html=1;verticalAlign=bottom;endArrow=open;dashed=1;endSize=8;curved=0;rounded=0;exitX=0;exitY=1;exitDx=0;exitDy=-5;" edge="1" source="8YJoVrMXhFkuWjcxH3iJ-14" parent="1" target="8YJoVrMXhFkuWjcxH3iJ-11">
          <mxGeometry relative="1" as="geometry">
            <mxPoint x="245" y="255" as="targetPoint" />
          </mxGeometry>
        </mxCell>
      </root>
    </mxGraphModel>
  </diagram>
</mxfile>
